HIERARCHY
ROOT Hips
{
	OFFSET 0.000000 71.427986 0.000000
	CHANNELS 6 Xposition Yposition Zposition Xrotation Yrotation Zrotation
	JOINT Pelvis
	{
		OFFSET 0.000000 0.000000 0.000000
		CHANNELS 3 Xrotation Yrotation Zrotation
		JOINT LeftUpLeg
		{
			OFFSET 6.797100 -2.508499 -1.318700
			CHANNELS 3 Xrotation Yrotation Zrotation
			JOINT LeftLeg
			{
				OFFSET 0.069008 -29.241863 0.690200
				CHANNELS 3 Xrotation Yrotation Zrotation
				JOINT LeftFoot
				{
					OFFSET -0.069008 -29.568123 -0.266800
					CHANNELS 3 Xrotation Yrotation Zrotation
					JOINT LeftToeBase
					{
						OFFSET 3.145500 -8.631000 16.059900
						CHANNELS 3 Xrotation Yrotation Zrotation
						End Site
						{
							OFFSET 0.000000 18.501587 0.000000
						}
					}
				}
			}
			JOINT Left_ShortSleeve
			{
				OFFSET 0.265923 -10.480953 1.153800
				CHANNELS 3 Xrotation Yrotation Zrotation
				End Site
				{
					OFFSET 1.725763 19.823879 0.000000
				}
			}
		}
		JOINT RightUpLeg
		{
			OFFSET -6.797100 -2.508499 -1.318700
			CHANNELS 3 Xrotation Yrotation Zrotation
			JOINT RightLeg
			{
				OFFSET -0.082453 -29.241932 0.688000
				CHANNELS 3 Xrotation Yrotation Zrotation
				JOINT RightFoot
				{
					OFFSET 0.082453 -29.568058 -0.264600
					CHANNELS 3 Xrotation Yrotation Zrotation
					JOINT RightToeBase
					{
						OFFSET -3.115300 -8.682800 16.113400
						CHANNELS 3 Xrotation Yrotation Zrotation
						End Site
						{
							OFFSET 0.000000 18.567114 0.000000
						}
					}
				}
			}
			JOINT Right_ShortSleeve
			{
				OFFSET -0.265923 -10.480953 1.153800
				CHANNELS 3 Xrotation Yrotation Zrotation
				End Site
				{
					OFFSET -1.725766 19.823910 0.000000
				}
			}
		}
	}
	JOINT Spine
	{
		OFFSET 0.000000 13.368103 0.470500
		CHANNELS 3 Xrotation Yrotation Zrotation
		JOINT Spine1
		{
			OFFSET 0.147000 13.837402 0.538800
			CHANNELS 3 Xrotation Yrotation Zrotation
			JOINT Spine2
			{
				OFFSET 0.168000 16.242897 -1.435500
				CHANNELS 3 Xrotation Yrotation Zrotation
				JOINT Neck
				{
					OFFSET 0.217200 18.631500 -1.679100
					CHANNELS 3 Xrotation Yrotation Zrotation
					JOINT Head
					{
						OFFSET 0.000000 6.599396 1.385900
						CHANNELS 3 Xrotation Yrotation Zrotation
						JOINT Hat
						{
							OFFSET -0.532200 27.220596 -10.096100
							CHANNELS 3 Xrotation Yrotation Zrotation
							End Site
							{
								OFFSET 0.000000 22.029861 0.000000
							}
						}
						JOINT HairD
						{
							OFFSET -10.777400 17.437393 -1.325900
							CHANNELS 3 Xrotation Yrotation Zrotation
							JOINT HairD1
							{
								OFFSET -3.290299 -11.051193 1.062200
								CHANNELS 3 Xrotation Yrotation Zrotation
								End Site
								{
									OFFSET 0.000000 11.579437 0.000000
								}
							}
						}
						JOINT HairB
						{
							OFFSET -10.777400 17.437393 1.467900
							CHANNELS 3 Xrotation Yrotation Zrotation
							JOINT HairB1
							{
								OFFSET -1.561200 -12.956299 3.590200
								CHANNELS 3 Xrotation Yrotation Zrotation
								End Site
								{
									OFFSET 0.000000 13.534866 0.000000
								}
							}
						}
						JOINT HairA
						{
							OFFSET 9.713100 17.437393 1.467900
							CHANNELS 3 Xrotation Yrotation Zrotation
							JOINT HairA1
							{
								OFFSET 1.561200 -12.956299 3.590200
								CHANNELS 3 Xrotation Yrotation Zrotation
								End Site
								{
									OFFSET 0.000000 13.534866 0.000000
								}
							}
						}
						JOINT HairC
						{
							OFFSET 9.713100 17.437393 -1.325900
							CHANNELS 3 Xrotation Yrotation Zrotation
							JOINT HairC1
							{
								OFFSET 3.290300 -11.051193 1.062200
								CHANNELS 3 Xrotation Yrotation Zrotation
								End Site
								{
									OFFSET 0.000000 11.579437 0.000000
								}
							}
						}
					}
				}
				JOINT LeftShoulder
				{
					OFFSET 5.101800 15.108002 -2.763700
					CHANNELS 3 Xrotation Yrotation Zrotation
					JOINT LeftArm
					{
						OFFSET 9.825497 2.506317 -1.597400
						CHANNELS 3 Xrotation Yrotation Zrotation
						JOINT LeftForeArm
						{
							OFFSET 21.966244 0.000000 0.000000
							CHANNELS 3 Xrotation Yrotation Zrotation
							JOINT LeftHand
							{
								OFFSET 33.879036 0.000000 0.000000
								CHANNELS 3 Xrotation Yrotation Zrotation
								JOINT LeftHandThumb1
								{
									OFFSET 6.715286 -2.359680 3.363841
									CHANNELS 3 Xrotation Yrotation Zrotation
									JOINT LeftHandThumb2
									{
										OFFSET 2.507072 -1.447464 1.447461
										CHANNELS 3 Xrotation Yrotation Zrotation
										JOINT LeftHandThumb3
										{
											OFFSET 2.898338 -1.673355 1.673357
											CHANNELS 3 Xrotation Yrotation Zrotation
											End Site
											{
												OFFSET -0.295959 3.727692 -0.131651
											}
										}
									}
								}
								JOINT LeftHandIndex1
								{
									OFFSET 14.190811 -0.254547 3.840278
									CHANNELS 3 Xrotation Yrotation Zrotation
									JOINT LeftHandIndex2
									{
										OFFSET 3.551727 0.000000 -0.000000
										CHANNELS 3 Xrotation Yrotation Zrotation
										JOINT LeftHandIndex3
										{
											OFFSET 2.894196 0.000000 0.000000
											CHANNELS 3 Xrotation Yrotation Zrotation
											End Site
											{
												OFFSET -1.000603 2.690872 0.366626
											}
										}
									}
								}
								JOINT LeftHandMiddle1
								{
									OFFSET 13.776489 0.000000 0.000000
									CHANNELS 3 Xrotation Yrotation Zrotation
									JOINT LeftHandMiddle2
									{
										OFFSET 3.438232 0.000000 0.000000
										CHANNELS 3 Xrotation Yrotation Zrotation
										JOINT LeftHandMiddle3
										{
											OFFSET 3.691551 0.000000 0.000000
											CHANNELS 3 Xrotation Yrotation Zrotation
											End Site
											{
												OFFSET -1.082298 3.499527 0.457670
											}
										}
									}
								}
								JOINT LeftHandRing1
								{
									OFFSET 13.966164 -0.268127 -3.067488
									CHANNELS 3 Xrotation Yrotation Zrotation
									JOINT LeftHandRing2
									{
										OFFSET 3.162567 0.000000 0.000000
										CHANNELS 3 Xrotation Yrotation Zrotation
										JOINT LeftHandRing3
										{
											OFFSET 3.324348 0.000000 0.000000
											CHANNELS 3 Xrotation Yrotation Zrotation
											End Site
											{
												OFFSET -0.861900 3.184998 0.405154
											}
										}
									}
								}
								JOINT LeftHandPinky1
								{
									OFFSET 13.131393 -0.168503 -5.746925
									CHANNELS 3 Xrotation Yrotation Zrotation
									JOINT LeftHandPinky2
									{
										OFFSET 2.849182 0.000000 0.000000
										CHANNELS 3 Xrotation Yrotation Zrotation
										JOINT LeftHandPinky3
										{
											OFFSET 2.805038 0.000000 0.000000
											CHANNELS 3 Xrotation Yrotation Zrotation
											End Site
											{
												OFFSET -0.882500 2.642609 0.325652
											}
										}
									}
								}
							}
							JOINT Left_Sleeve
							{
								OFFSET 6.592125 -0.646545 0.805568
								CHANNELS 3 Xrotation Yrotation Zrotation
								End Site
								{
									OFFSET -0.000179 20.275787 -0.000000
								}
							}
						}
					}
				}
				JOINT RightShoulder
				{
					OFFSET -5.731700 15.108002 -2.763700
					CHANNELS 3 Xrotation Yrotation Zrotation
					JOINT RightArm
					{
						OFFSET -9.825497 2.506317 -1.597400
						CHANNELS 3 Xrotation Yrotation Zrotation
						JOINT RightForeArm
						{
							OFFSET -21.966242 0.000000 0.000000
							CHANNELS 3 Xrotation Yrotation Zrotation
							JOINT RightHand
							{
								OFFSET -33.879032 0.000000 0.000000
								CHANNELS 3 Xrotation Yrotation Zrotation
								JOINT RightHandThumb1
								{
									OFFSET -6.715286 -2.359680 3.363841
									CHANNELS 3 Xrotation Yrotation Zrotation
									JOINT RightHandThumb2
									{
										OFFSET -2.507072 -1.447464 1.447461
										CHANNELS 3 Xrotation Yrotation Zrotation
										JOINT RightHandThumb3
										{
											OFFSET -2.898338 -1.673355 1.673357
											CHANNELS 3 Xrotation Yrotation Zrotation
											End Site
											{
												OFFSET 0.295959 3.727692 -0.131651
											}
										}
									}
								}
								JOINT RightHandIndex1
								{
									OFFSET -14.190811 -0.254547 3.840278
									CHANNELS 3 Xrotation Yrotation Zrotation
									JOINT RightHandIndex2
									{
										OFFSET -3.551727 0.000000 -0.000000
										CHANNELS 3 Xrotation Yrotation Zrotation
										JOINT RightHandIndex3
										{
											OFFSET -2.894196 0.000000 0.000000
											CHANNELS 3 Xrotation Yrotation Zrotation
											End Site
											{
												OFFSET 1.000603 2.690872 0.366626
											}
										}
									}
								}
								JOINT RightHandMiddle1
								{
									OFFSET -13.776489 0.000000 0.000000
									CHANNELS 3 Xrotation Yrotation Zrotation
									JOINT RightHandMiddle2
									{
										OFFSET -3.438232 0.000000 0.000000
										CHANNELS 3 Xrotation Yrotation Zrotation
										JOINT RightHandMiddle3
										{
											OFFSET -3.691551 0.000000 0.000000
											CHANNELS 3 Xrotation Yrotation Zrotation
											End Site
											{
												OFFSET 1.082298 3.499527 0.457670
											}
										}
									}
								}
								JOINT RightHandRing1
								{
									OFFSET -13.966164 -0.268127 -3.067488
									CHANNELS 3 Xrotation Yrotation Zrotation
									JOINT RightHandRing2
									{
										OFFSET -3.162567 0.000000 0.000000
										CHANNELS 3 Xrotation Yrotation Zrotation
										JOINT RightHandRing3
										{
											OFFSET -3.324348 0.000000 0.000000
											CHANNELS 3 Xrotation Yrotation Zrotation
											End Site
											{
												OFFSET 0.861900 3.184998 0.405154
											}
										}
									}
								}
								JOINT RightHandPinky1
								{
									OFFSET -13.131393 -0.168503 -5.746925
									CHANNELS 3 Xrotation Yrotation Zrotation
									JOINT RightHandPinky2
									{
										OFFSET -2.849182 0.000000 0.000000
										CHANNELS 3 Xrotation Yrotation Zrotation
										JOINT RightHandPinky3
										{
											OFFSET -2.805038 0.000000 0.000000
											CHANNELS 3 Xrotation Yrotation Zrotation
											End Site
											{
												OFFSET 0.882500 2.642609 0.325652
											}
										}
									}
								}
							}
							JOINT Right_Sleeve
							{
								OFFSET -6.592125 -0.646545 0.805568
								CHANNELS 3 Xrotation Yrotation Zrotation
								End Site
								{
									OFFSET 0.000179 20.275787 -0.000000
								}
							}
						}
					}
				}
				JOINT Bind_Right_JacketString
				{
					OFFSET -3.534800 11.969597 7.200700
					CHANNELS 3 Xrotation Yrotation Zrotation
					JOINT Bind_Right_JacketString1
					{
						OFFSET -0.319900 -6.102600 2.794100
						CHANNELS 3 Xrotation Yrotation Zrotation
						End Site
						{
							OFFSET 0.000000 6.719452 0.000000
						}
					}
				}
				JOINT Bind_Left_JacketString
				{
					OFFSET 2.904800 11.969597 7.200700
					CHANNELS 3 Xrotation Yrotation Zrotation
					JOINT Bind_Left_JacketString1
					{
						OFFSET 0.364800 -5.904503 3.186800
						CHANNELS 3 Xrotation Yrotation Zrotation
						End Site
						{
							OFFSET 0.000000 6.719513 0.000000
						}
					}
				}
				JOINT HairE
				{
					OFFSET 5.915200 17.612701 -11.592200
					CHANNELS 3 Xrotation Yrotation Zrotation
					JOINT HairE1
					{
						OFFSET 0.289200 -7.171898 -1.284500
						CHANNELS 3 Xrotation Yrotation Zrotation
						End Site
						{
							OFFSET 0.000000 7.291756 0.000000
						}
					}
				}
				JOINT HairF
				{
					OFFSET -0.864800 17.612701 -11.592200
					CHANNELS 3 Xrotation Yrotation Zrotation
					JOINT HairF1
					{
						OFFSET 0.000000 -14.087097 -2.127501
						CHANNELS 3 Xrotation Yrotation Zrotation
						End Site
						{
							OFFSET 0.000000 14.246841 0.000000
						}
					}
				}
				JOINT HairG
				{
					OFFSET -8.087700 17.612701 -11.592200
					CHANNELS 3 Xrotation Yrotation Zrotation
					JOINT HairG1
					{
						OFFSET -0.293600 -6.081398 -0.910100
						CHANNELS 3 Xrotation Yrotation Zrotation
						End Site
						{
							OFFSET 0.000000 6.156120 0.000000
						}
					}
				}
			}
		}
	}
	JOINT Pouch
	{
		OFFSET 0.000000 4.394501 10.847300
		CHANNELS 3 Xrotation Yrotation Zrotation
		End Site
		{
			OFFSET 0.000000 21.880577 0.000000
		}
	}
	JOINT Bag
	{
		OFFSET -13.229000 4.813004 -0.593300
		CHANNELS 3 Xrotation Yrotation Zrotation
		End Site
		{
			OFFSET 0.000000 21.880577 0.000000
		}
	}
	JOINT OccupyGuyFacialAnim_Joint
	{
		OFFSET 1.000000 -70.206398 -1.655000
		CHANNELS 3 Xrotation Yrotation Zrotation
		End Site
		{
			OFFSET 0.000000 21.880577 0.000000
		}
	}
}
MOTION
Frames: 4
Frame Time: 0.016667
-0.045466 70.968506 1.522026 -4.056152 6.164250 -1.782905 -0.000000 -0.000000 -0.000000 -0.014303 11.422200 10.271431 10.020489 -6.794256 0.228295 -7.188441 0.795180 -6.693755 0.000000 0.000000 0.000000 0.000000 0.000002 0.000001 1.677932 -5.866491 1.907239 9.100379 3.441593 -0.554207 -6.521970 0.014012 0.215201 -0.000000 -0.000000 -0.000000 -0.000000 0.000000 -0.000000 4.903520 -0.349269 1.239686 5.814413 -0.121247 1.891503 -4.300227 -0.608021 -1.115061 1.348863 -1.122447 0.966616 4.180612 -0.441330 -1.260350 -0.000000 0.000000 -0.000000 -0.000000 0.000000 -0.000000 -0.000000 0.000000 -0.000000 -0.000000 0.000000 -0.000000 -0.000000 0.000000 0.000000 -0.000000 0.000000 -0.000000 -0.000000 0.000000 0.000000 -0.000000 0.000000 -0.000000 -0.000000 0.000000 -0.000000 1.687379 -7.781273 -3.495009 -0.671930 -2.004021 -76.954211 6.346059 -10.905884 1.751774 -0.215900 -0.743848 3.407705 -3.786647 8.458007 12.355394 7.478458 11.594934 -1.281161 0.000000 -0.000000 -0.000001 2.378697 3.620436 -6.815238 0.000191 0.249692 -17.103509 0.000001 0.000000 -0.000000 -1.935729 5.644668 -11.386962 0.106895 0.707431 -24.767355 0.000000 0.000001 -0.000001 -4.873097 10.020048 -7.875474 -0.020636 0.335917 -30.084753 -0.000002 -0.000000 -0.000004 -6.437478 11.282574 -19.770917 0.037273 0.251332 -30.842160 -0.000001 -0.000001 0.000003 0.000000 0.000001 -0.000000 2.088908 10.213784 4.097141 1.436092 3.709008 75.271792 15.720268 15.338542 -4.555622 -4.674570 -0.553306 -0.689852 -0.464241 -8.992504 -6.084878 7.449363 -11.614434 1.291254 0.000003 0.000000 0.000002 2.362067 -3.634256 8.333111 0.014202 -0.252973 18.622480 -0.000003 0.000001 -0.000001 -1.983677 -5.671332 13.530162 0.119632 -0.656157 26.914128 0.000003 -0.000001 -0.000001 -4.977999 -10.100876 10.695780 -0.012093 -0.340805 32.924042 0.000003 -0.000000 -0.000004 -6.474129 -11.323138 23.226080 0.055860 -0.250365 34.317842 0.000001 -0.000000 -0.000003 0.000001 0.000000 0.000001 0.000000 0.000000 0.000000 0.000000 -0.000000 0.000000 0.000000 0.000000 0.000000 0.000000 0.000000 0.000000 0.000000 0.000000 0.000000 0.000000 -0.000000 0.000000 0.000000 0.000000 0.000000 0.000000 0.000000 0.000000 0.000000 0.000000 0.000000 0.000000 -0.000000 0.000000 -0.000000 -0.000000 -0.000000 -0.000000 -0.000000 -0.000000 -0.000000 -0.000000 -0.000000 
-0.052704 70.962616 1.547801 -4.045311 5.952265 -1.809856 0.000000 -0.000000 0.000000 0.002766 11.515387 10.320018 10.080261 -6.685955 0.189140 -7.271502 0.797688 -6.695360 0.000000 0.000001 0.000000 -0.000000 0.000003 -0.000000 1.622348 -5.898698 1.876995 9.189721 3.689398 -0.481666 -6.563585 0.018661 0.147143 0.000000 -0.000000 -0.000000 -0.000000 -0.000000 -0.000000 5.236470 -0.322682 1.201601 5.633655 -0.121061 1.918716 -4.352965 -0.591956 -1.049514 1.377147 -1.090217 0.931311 3.936334 -0.412710 -1.296462 0.000000 -0.000000 -0.000000 0.000000 -0.000000 -0.000000 0.000000 -0.000000 -0.000000 0.000000 -0.000000 -0.000000 0.000000 -0.000000 0.000000 0.000000 -0.000000 -0.000000 0.000000 -0.000000 0.000000 0.000000 -0.000000 -0.000000 0.000000 -0.000000 -0.000000 1.651271 -7.731092 -3.681486 -0.695461 -2.100490 -76.810935 6.241777 -10.917063 1.584181 -0.232980 -0.585452 3.802321 -3.785245 8.454634 12.355332 7.482389 11.596690 -1.286029 -0.000001 -0.000000 -0.000001 2.379206 3.629045 -6.788385 0.000126 0.249686 -17.091024 0.000004 0.000002 -0.000002 -1.939393 5.657827 -11.364479 0.106890 0.707413 -24.761673 0.000000 -0.000000 0.000001 -4.878414 10.039904 -7.848561 -0.020611 0.335914 -30.084743 0.000001 0.000001 -0.000003 -6.440631 11.305771 -19.752711 0.037307 0.251354 -30.842126 -0.000001 -0.000001 0.000003 0.000001 0.000000 -0.000000 2.064653 10.089339 4.140848 1.630641 4.074593 75.042093 15.586949 15.435712 -4.453097 -5.016221 -0.489170 -0.883014 -0.464715 -9.050171 -6.077186 7.438710 -11.615217 1.273099 0.000002 -0.000001 -0.000001 2.380998 -3.625719 8.514089 0.014265 -0.253021 18.699432 0.000002 -0.000003 -0.000000 -1.956561 -5.652401 13.660323 0.119710 -0.656248 26.931491 0.000004 -0.000002 0.000001 -4.927667 -10.055861 10.840800 -0.012112 -0.340708 32.907752 0.000001 0.000001 0.000001 -6.435788 -11.256302 23.302859 0.055753 -0.250273 34.290217 0.000001 0.000001 0.000001 0.000003 0.000000 -0.000001 -0.000000 0.000000 -0.000000 -0.000000 -0.000000 -0.000000 -0.000000 0.000000 -0.000000 -0.000000 0.000000 -0.000000 -0.000000 0.000000 -0.000000 -0.000000 -0.000000 0.000000 -0.000000 0.000000 -0.000000 -0.000000 0.000000 -0.000000 -0.000000 0.000000 -0.000000 -0.000000 -0.000000 0.000000 0.000000 -0.000000 0.000000 0.000000 -0.000000 0.000000 0.000000 -0.000000 0.000000 
-0.059758 70.953194 1.572233 -3.951474 5.767156 -1.841378 -0.000000 -0.000000 -0.000000 -0.087730 11.538386 10.347727 10.186798 -6.539948 0.181320 -7.366271 0.802344 -6.711157 -0.000000 0.000001 -0.000000 -0.000000 0.000001 -0.000000 1.454445 -5.883250 1.862122 9.323754 3.937705 -0.448601 -6.621330 0.021024 0.098970 0.000000 -0.000000 -0.000000 0.000000 -0.000000 0.000000 5.415931 -0.328264 1.220073 5.522214 -0.132479 1.904806 -4.333486 -0.594682 -1.023816 1.247723 -1.042278 0.952613 3.900949 -0.349568 -1.362773 0.000000 0.000000 -0.000000 0.000000 0.000000 -0.000000 0.000000 0.000000 0.000000 0.000000 0.000000 0.000000 0.000000 0.000000 -0.000000 0.000000 0.000000 0.000000 0.000000 0.000000 -0.000000 0.000000 0.000000 -0.000000 0.000000 0.000000 -0.000000 1.620307 -7.552168 -3.860861 -0.751191 -2.300622 -76.607142 6.273863 -11.004182 1.438891 -0.243638 -0.478227 4.018971 -3.781390 8.444587 12.355072 7.491354 11.602860 -1.294932 -0.000001 0.000001 -0.000003 2.378275 3.651468 -6.736828 0.000124 0.249660 -17.072104 0.000001 0.000001 0.000000 -1.949742 5.684356 -11.316854 0.106862 0.707397 -24.756639 0.000001 0.000000 -0.000001 -4.898093 10.077519 -7.782042 -0.020652 0.335931 -30.084740 0.000000 0.000000 -0.000001 -6.457031 11.350214 -19.703772 0.037298 0.251347 -30.842129 0.000001 -0.000000 -0.000002 0.000000 -0.000001 -0.000001 1.990163 10.065644 4.383187 2.016831 4.166795 74.641933 15.644895 15.971443 -4.499037 -5.149047 -0.647290 -1.037959 -0.465262 -9.107755 -6.069220 7.427810 -11.616013 1.254607 0.000003 -0.000000 0.000003 2.399823 -3.617038 8.697705 0.014322 -0.253095 18.778306 -0.000002 -0.000001 0.000000 -1.929479 -5.635150 13.790690 0.119801 -0.656292 26.948942 0.000004 -0.000001 -0.000001 -4.877840 -10.011673 10.983899 -0.012118 -0.340599 32.890045 0.000002 -0.000001 -0.000000 -6.398379 -11.189232 23.374999 0.055651 -0.250144 34.259498 -0.000000 -0.000000 0.000001 0.000004 -0.000001 0.000001 -0.000000 0.000000 0.000000 -0.000000 0.000000 -0.000000 -0.000000 0.000000 0.000000 -0.000000 0.000000 0.000000 -0.000000 0.000000 0.000000 -0.000000 0.000000 -0.000000 -0.000000 0.000000 0.000000 -0.000000 0.000000 0.000000 -0.000000 0.000000 0.000000 -0.000000 0.000000 -0.000000 -0.000000 -0.000000 -0.000000 -0.000000 -0.000000 -0.000000 -0.000000 -0.000000 -0.000000 
-0.083191 70.941811 1.599786 -3.895656 5.566064 -1.883996 0.000001 0.000000 0.000000 -0.164384 11.618342 10.431114 10.321227 -6.447254 0.147042 -7.480076 0.807715 -6.726109 -0.000000 -0.000000 -0.000000 -0.000000 -0.000000 -0.000001 1.307189 -5.856452 1.871044 9.512521 4.073285 -0.392145 -6.708825 0.024903 0.025174 0.000000 -0.000000 -0.000000 -0.000000 0.000000 -0.000000 5.796715 -0.335207 1.157118 5.242578 -0.156766 1.980718 -4.477640 -0.616531 -0.907269 1.569828 -0.951847 0.854657 3.456797 -0.286825 -1.374108 0.000001 -0.000000 0.000000 0.000001 -0.000000 0.000000 0.000001 -0.000000 0.000000 0.000001 -0.000000 0.000000 -0.000000 0.000000 0.000000 0.000001 -0.000000 0.000000 -0.000000 0.000000 0.000000 0.000001 -0.000000 0.000000 0.000001 -0.000000 0.000000 1.575138 -7.497786 -4.111631 -0.649928 -2.291440 -76.423233 6.332384 -11.136893 1.329732 -0.228592 -0.569912 4.292989 -3.777154 8.428099 12.358920 7.504811 11.613065 -1.307484 0.000001 0.000001 -0.000001 2.372264 3.686789 -6.663267 0.000115 0.249628 -17.048058 0.000002 0.000001 0.000000 -1.965978 5.722496 -11.247128 0.106863 0.707375 -24.752411 0.000000 0.000000 0.000001 -4.930790 10.130576 -7.680403 -0.020616 0.335943 -30.088295 -0.000000 0.000000 -0.000002 -6.485182 11.413304 -19.627484 0.037287 0.251328 -30.842112 -0.000000 -0.000001 0.000003 -0.000000 -0.000001 -0.000001 1.992628 10.037301 4.259008 2.129319 4.477109 74.585741 15.564224 15.783217 -4.347643 -5.452082 -0.363446 -1.427779 -0.465853 -9.165422 -6.061384 7.416882 -11.616824 1.235996 0.000001 0.000001 0.000002 2.418924 -3.608136 8.883899 0.014417 -0.253162 18.859056 0.000002 -0.000000 -0.000002 -1.902500 -5.619340 13.921305 0.119920 -0.656331 26.966565 -0.000000 -0.000001 -0.000001 -4.828683 -9.968009 11.124720 -0.012144 -0.340472 32.871450 0.000001 -0.000000 -0.000000 -6.362050 -11.121751 23.442867 0.055563 -0.250006 34.225897 -0.000001 0.000002 -0.000003 0.000003 0.000001 -0.000001 0.000000 0.000000 0.000000 0.000000 0.000000 0.000000 0.000000 0.000000 0.000000 0.000000 0.000000 0.000000 0.000000 0.000000 0.000000 0.000000 0.000000 0.000000 0.000000 0.000000 0.000000 0.000000 0.000000 0.000000 0.000000 0.000000 0.000000 0.000000 0.000000 0.000000 0.000001 0.000000 0.000000 0.000001 0.000000 0.000000 0.000001 0.000000 0.000000 
